<svg id="Layer_1" data-name="Layer 1" xmlns="http://www.w3.org/2000/svg" viewBox="0 0 295 288.21"><defs><style>.cls-1{fill:#88d498;}.cls-2{fill:none;stroke:#fff;stroke-miterlimit:10;stroke-width:3px;}</style></defs><title>Untitled-2</title><path d="M308.07,232.63a17.84,17.84,0,0,0-4.41.52v13.48c0-3.9,1.87-5.51,4.67-5.51s4.66,1.61,4.66,5.51v6.88h8.83v-6.28C321.82,238.06,317.07,232.63,308.07,232.63Z" transform="translate(-148.59 -5.81)"/><path d="M179.47,144.51h24.69V153H188.8v16.55h12V178h-12v25.89h-9.33Z" transform="translate(-148.59 -5.81)"/><path d="M208.65,144.51H218v59.41h-9.34Z" transform="translate(-148.59 -5.81)"/><path d="M224.94,144.51h11.71l9.08,35.56h.17V144.51h8.32v59.41h-9.59l-11.2-43.37h-.17v43.37h-8.32Z" transform="translate(-148.59 -5.81)"/><path d="M268.39,144.51H281l9.68,59.41h-9.34l-1.7-11.8v.17h-10.6l-1.7,11.63h-8.66Zm10.18,39.72-4.16-29.37h-.17l-4.07,29.37Z" transform="translate(-148.59 -5.81)"/><path d="M295.2,144.51h11.71L316,180.07h.17V144.51h8.32v59.41h-9.59l-11.2-43.37h-.17v43.37H295.2Z" transform="translate(-148.59 -5.81)"/><path d="M330.84,190.17V158.26c0-9.17,4.75-14.6,13.74-14.6s13.75,5.43,13.75,14.6v6.28h-8.82v-6.88c0-3.9-1.87-5.51-4.67-5.51s-4.67,1.61-4.67,5.51v33.19c0,3.91,1.87,5.43,4.67,5.43s4.67-1.52,4.67-5.43v-9.08h8.82v8.4c0,9.17-4.75,14.6-13.75,14.6S330.84,199.34,330.84,190.17Z" transform="translate(-148.59 -5.81)"/><path d="M363.93,144.51h9.33v59.41h-9.33Z" transform="translate(-148.59 -5.81)"/><path d="M387.43,144.51h12.65l9.67,59.41h-9.33l-1.7-11.8v.17H388.11l-1.69,11.63h-8.66Zm10.19,39.72-4.16-29.37h-.17l-4.07,29.37Z" transform="translate(-148.59 -5.81)"/><path d="M414.25,144.51h9.33v50.92h15.36v8.49H414.25Z" transform="translate(-148.59 -5.81)"/><path d="M166.9,233.76h24.69v8.49H176.23V258.8h12.05v8.49H176.23v25.89H166.9Z" transform="translate(-148.59 -5.81)"/><path d="M195.41,279.09V247.85c0-9.5,5-14.94,14.17-14.94s14.17,5.44,14.17,14.94v31.24c0,9.5-5,14.94-14.17,14.94S195.41,288.59,195.41,279.09Zm19,.59V247.26c0-4.25-1.86-5.86-4.83-5.86s-4.84,1.61-4.84,5.86v32.42c0,4.25,1.87,5.86,4.84,5.86S214.41,283.93,214.41,279.68Z" transform="translate(-148.59 -5.81)"/><path d="M230,233.76h13.83c9.67,0,13.83,4.5,13.83,13.67v3.65c0,6.11-1.95,10-6.11,11.71V263c4.67,1.44,6.19,5.86,6.19,12.56V286c0,2.89.09,5,1,7.22h-9.5c-.51-1.53-.85-2.46-.85-7.3V275c0-5.51-1.61-7.3-5.86-7.3h-3.22v25.47H230Zm12.72,25.47c3.48,0,5.6-1.53,5.6-6.29v-4.58c0-4.24-1.44-6.11-4.75-6.11h-4.24v17Z" transform="translate(-148.59 -5.81)"/><path d="M264.22,233.76h25.46v8.49H273.56V258h12.81v8.49H273.56v18.25h16.12v8.49H264.22Z" transform="translate(-148.59 -5.81)"/><path d="M334.73,233.76h12.65l9.67,59.42h-9.33l-1.7-11.8v.17H335.41l-1.69,11.63h-8.66Zm10.19,39.72-4.16-29.36h-.17l-4.07,29.36Z" transform="translate(-148.59 -5.81)"/><path d="M359.68,279.09v-3.4h8.83v4.08c0,4.24,1.86,5.77,4.83,5.77s4.84-1.53,4.84-5.94c0-4.93-1.87-8.07-8-13.41-7.8-6.88-10.35-11.72-10.35-18.51,0-9.33,4.84-14.77,13.92-14.77s13.58,5.44,13.58,14.94v2.46h-8.83v-3.05c0-4.25-1.7-5.86-4.67-5.86s-4.66,1.61-4.66,5.69c0,4.33,1.95,7.47,8.06,12.81,7.8,6.88,10.26,11.63,10.26,19,0,9.67-4.92,15.11-14.08,15.11S359.68,288.59,359.68,279.09Z" transform="translate(-148.59 -5.81)"/><path d="M400.16,242.25H390.4v-8.49h28.85v8.49h-9.76v50.93h-9.33Z" transform="translate(-148.59 -5.81)"/><path class="cls-1" d="M313.33,279.53c0,3.91-1.87,5.44-4.67,5.44s-4.66-1.53-4.66-5.44V232.86c-6.13,1.55-9.34,6.55-9.34,14.08v31.92c0,9.16,4.75,14.59,13.75,14.59s13.75-5.43,13.75-14.59v-8.41h-8.83Z" transform="translate(-148.59 -5.81)"/><polygon class="cls-1" points="146.66 108.91 146.66 138.69 146.13 250.78 155.41 250.78 155.41 227.05 154.93 198.11 155.07 138.69 155.41 108.91 146.66 108.91"/><path d="M415.57,125.38c15.47,0,28,4.08,28,9.12,0-70.26-66-127.22-147.5-127.22s-147.5,57-147.5,127.23c0-5,12.55-9.13,28-9.13s28,4.09,28,9.12c0-5,12.55-9.12,28-9.12s28,4.09,28,9.13c0-6.37,15.85-11.53,35.4-11.53s35.4,5.16,35.4,11.53c0-5,12.55-9.13,28-9.13s28,4.09,28,9.13C387.54,129.47,400.09,125.38,415.57,125.38Z" transform="translate(-148.59 -5.81)"/><path class="cls-2" d="M204.64,134.5c0-108.8,91.45-127.22,91.45-127.22" transform="translate(-148.59 -5.81)"/><path class="cls-2" d="M260.69,134.51c0-132.24,35.4-123.22,35.4-123.22" transform="translate(-148.59 -5.81)"/><path class="cls-2" d="M331.49,134.51c0-132.24-35.4-123.22-35.4-123.22" transform="translate(-148.59 -5.81)"/><path class="cls-2" d="M387.54,136.44c0-108.8-91.45-127.22-91.45-127.22" transform="translate(-148.59 -5.81)"/></svg>